<svg version="1.1" id="Layer_1" xmlns="http://www.w3.org/2000/svg" xmlns:xlink="http://www.w3.org/1999/xlink" x="0px" y="0px"
	 width="1740.991px" height="1911.099px" viewBox="0 0 1740.991 1911.099" enable-background="new 0 0 1740.991 1911.099"
	 xml:space="preserve">
<g fill="#000000" opacity=".1">
	<path d="M1725.049,509.563c-3.134-13.447-6.408-27.56-9.715-50.878c-31.223,5.852-72.715-5.037-140.889-21.051l-143.059-33.316
		c-25.099-5.805-50.481-11.544-75.106-17.859c-2.39-12.116-5.331-24.424-8.858-36.919c16.964-14.198,34.417-28.258,52.08-42.646
		l137.42-112.732c38.162-30.842,75.932-57.333,102.749-60.736c-7.175-21.71-11.391-39.855-14.983-55.304
		c-3.913-16.813-6.974-33.101-10.337-53.569c-3.929-4.745-14.159-3.078-17.433,1.222l1.171,11.062
		c4.148,42.246-4.681,49.968-47.321,58.477c-37.277,7.253-95.025,17.845-151.584,27.47
		c-67.469,11.444-105.222,16.679-150.498,22.963c-4.095,0.589-7.878,1.064-11.393,1.427
		c-73.992-82.121-169.6-128.619-267.167-142.541C827.118-14.354,667.563,25.578,469.688,114.145
		c-197.875,88.564-344.622,157.097-463.52,230.35c-14.804,18.067-1.171,54.895,21.901,61.731l90.114-28.874
		c112.62-36.097,135.519,2.298,226.216,204.946l393.743,879.738c112.032,250.326,120.076,281.066-9.658,362.026l-46.862,29.569
		c-7.92,20.701,13.93,56.723,31.436,57.468c102.76-51.711,187.521-92.514,287.652-137.329
		c95.361-42.687,175.117-75.512,313.146-131.567c11.1-13.549-2.275-56.224-21.917-61.739l-67.575,21.66
		c-160.031,51.604-178.681,22.735-290.729-227.584L457.732,311.223c-34.143-76.288-36.027-86.891,90.327-143.448
		c247.96-110.97,451.082-21.592,554.576,209.663c92.832,207.421,64.939,394.463-171.209,557.387
		c-12.164,11.172,3.845,46.94,23.717,46.621c97.766-43.751,214.512-121.763,297.014-218.783
		c33.22-39.792,67.596-92.41,89.45-156.015c3.948-1.196,8.183-2.42,12.704-3.761c95.523-27.891,219.691-57.482,290.624-75.395
		c46.879-11.617,60.897-9.212,74.777,32.19l4.624,13.801c3.471,2.735,14.895,0.081,16.654-4.585
		C1734.797,548.375,1728.967,526.363,1725.049,509.563z M1263.721,176.96c57.125-13.293,117.58-24.516,159.017-32.033
		c39.463-7.055,78.903-14.109,121.196-21.107l0.303,1.342c-27.473,21.977-59.121,44.219-86.75,65.518l-115.625,90.646
		c-4.192,3.305-8.992,7.121-14.211,11.271c-2.146-5.207-4.393-10.442-6.748-15.706c-16.587-37.062-36.376-70.213-58.678-99.582
		C1262.722,177.193,1263.216,177.077,1263.721,176.96z M1358.28,542.346c7.039-39.816,8.681-82.956,2.457-129.088
		c11.165,2.674,22.407,5.418,33.536,8.192l131.511,32.447c29.356,7.349,89.049,20.379,97.536,23.361l0.319,1.342L1358.28,542.346z"
		/>
	<path d="M699.178,312.591c-30.208,13.521-43.746,48.97-30.225,79.175c13.521,30.211,48.981,43.74,79.189,30.219
		c30.208-13.523,43.729-48.967,30.208-79.181C764.83,312.6,729.392,299.068,699.178,312.591z"/>
</g>
</svg>
