<svg version="1.1" id="Layer_1" xmlns="http://www.w3.org/2000/svg" xmlns:xlink="http://www.w3.org/1999/xlink" x="0px" y="0px"
	 width="172.134px" height="188.953px" viewBox="0 0 172.134 188.953" enable-background="new 0 0 172.134 188.953"
	 xml:space="preserve">
<g fill="black" opacity=".1">
	<path d="M170.558,50.381c-0.311-1.33-0.634-2.725-0.961-5.03c-3.087,0.579-7.189-0.498-13.93-2.082l-14.145-3.294
		c-2.488-0.575-4.997-1.149-7.438-1.775c-0.235-1.191-0.524-2.401-0.87-3.629c1.681-1.407,3.404-2.802,5.155-4.228l13.587-11.146
		c3.773-3.049,7.508-5.668,10.159-6.005c-0.71-2.146-1.127-3.94-1.481-5.468c-0.388-1.662-0.689-3.272-1.022-5.296
		c-0.389-0.469-1.399-0.304-1.724,0.121l0.116,1.094c0.41,4.177-0.463,4.94-4.679,5.782c-3.686,0.717-9.396,1.764-14.987,2.716
		c-6.671,1.131-10.403,1.649-14.88,2.271c-0.413,0.06-0.784,0.103-1.138,0.139c-7.315-8.114-16.761-12.715-26.404-14.091
		C81.778-1.419,66.002,2.529,46.438,11.286C26.875,20.042,12.365,26.818,0.61,34.061c-1.464,1.786-0.116,5.427,2.165,6.104
		l8.91-2.855c11.135-3.569,13.399,0.227,22.366,20.263l38.93,86.981c11.077,24.75,11.872,27.789-0.955,35.794l-4.633,2.923
		c-0.783,2.047,1.377,5.608,3.108,5.683c10.16-5.113,18.541-9.147,28.441-13.578c9.428-4.221,17.313-7.466,30.961-13.009
		c1.098-1.339-0.226-5.559-2.167-6.104l-6.682,2.142c-15.822,5.102-17.666,2.248-28.744-22.502L45.256,30.771
		c-3.376-7.543-3.562-8.591,8.931-14.183c24.516-10.972,44.599-2.135,54.832,20.73c9.179,20.508,6.421,39.001-16.928,55.109
		c-1.202,1.104,0.38,4.641,2.345,4.609c9.666-4.326,21.209-12.039,29.366-21.631c3.283-3.933,6.677-9.137,8.838-15.423
		c0.393-0.119,0.812-0.241,1.263-0.375c9.444-2.757,21.721-5.683,28.734-7.454c4.635-1.149,6.021-0.911,7.393,3.183l0.457,1.364
		c0.344,0.271,1.473,0.008,1.647-0.453C171.521,54.218,170.944,52.042,170.558,50.381z M124.945,17.496
		c5.648-1.314,11.625-2.424,15.722-3.167c3.902-0.698,7.802-1.395,11.983-2.087l0.03,0.133c-2.717,2.173-5.846,4.372-8.577,6.478
		l-11.433,8.962c-0.415,0.327-0.895,0.708-1.411,1.119c-0.213-0.517-0.427-1.035-0.661-1.558c-1.643-3.67-3.615-6.933-5.824-9.839
		C124.833,17.523,124.886,17.51,124.945,17.496z M134.286,53.625c0.696-3.938,0.866-8.202,0.25-12.765
		c1.104,0.264,2.217,0.535,3.317,0.81l13.002,3.208c2.902,0.727,8.805,2.015,9.644,2.31l0.031,0.133L134.286,53.625z"/>
	<circle cx="71.549" cy="36.314" r="5.925"/>
</g>
</svg>
